<?xml version="1.0" encoding="UTF-8"?>
<svg xmlns="http://www.w3.org/2000/svg" xmlns:xlink="http://www.w3.org/1999/xlink" width="48px" height="48px" viewBox="0 0 48 48" version="1.1">
<g id="surface98994">
<path style=" stroke:none;fill-rule:nonzero;fill:rgb(6.666667%,50.196078%,38.823529%);fill-opacity:1;" d="M 37.148438 38.722656 C 35.585938 40.285156 33.054688 40.285156 31.492188 38.722656 C 29.929688 37.15625 29.929688 34.628906 31.492188 33.066406 C 33.054688 31.503906 35.585938 31.503906 37.148438 33.066406 C 38.710938 34.625 38.710938 37.160156 37.148438 38.722656 Z M 37.148438 38.722656 "/>
<path style=" stroke:none;fill-rule:nonzero;fill:rgb(71.764706%,85.490196%,82.352941%);fill-opacity:1;" d="M 34.1875 10.972656 C 32.527344 10.972656 31.1875 12.316406 31.1875 13.972656 C 31.1875 15.628906 32.527344 16.972656 34.1875 16.972656 C 35.84375 16.972656 37.1875 15.628906 37.1875 13.972656 C 37.1875 12.316406 35.84375 10.972656 34.1875 10.972656 Z M 34.1875 10.972656 "/>
<path style=" stroke:none;fill-rule:nonzero;fill:rgb(71.764706%,85.490196%,82.352941%);fill-opacity:1;" d="M 23.304688 6.429688 C 21.648438 6.429688 20.304688 7.773438 20.304688 9.429688 C 20.304688 11.085938 21.648438 12.429688 23.304688 12.429688 C 24.960938 12.429688 26.304688 11.085938 26.304688 9.429688 C 26.304688 7.773438 24.960938 6.429688 23.304688 6.429688 Z M 23.304688 6.429688 "/>
<path style=" stroke:none;fill-rule:nonzero;fill:rgb(81.176471%,84.705882%,86.27451%);fill-opacity:1;" d="M 14.519531 16.097656 C 13.351562 17.265625 11.449219 17.265625 10.277344 16.09375 C 9.109375 14.921875 9.109375 13.023438 10.277344 11.851562 C 11.453125 10.679688 13.351562 10.679688 14.519531 11.851562 C 15.691406 13.023438 15.695312 14.921875 14.519531 16.097656 Z M 11.902344 33.53125 C 10.796875 33.53125 9.902344 34.425781 9.902344 35.53125 C 9.902344 36.636719 10.796875 37.53125 11.902344 37.53125 C 13.007812 37.53125 13.902344 36.636719 13.902344 35.53125 C 13.902344 34.425781 13.007812 33.53125 11.902344 33.53125 Z M 24.34375 41.355469 C 23.757812 41.941406 22.808594 41.945312 22.222656 41.355469 C 21.640625 40.773438 21.636719 39.820312 22.222656 39.234375 C 22.808594 38.648438 23.761719 38.652344 24.34375 39.234375 C 24.929688 39.824219 24.929688 40.769531 24.34375 41.355469 Z M 7.859375 22.375 C 6.480469 22.375 5.359375 23.492188 5.359375 24.875 C 5.359375 26.253906 6.480469 27.375 7.859375 27.375 C 9.242188 27.375 10.359375 26.253906 10.359375 24.875 C 10.359375 23.492188 9.242188 22.375 7.859375 22.375 Z M 7.859375 22.375 "/>
<path style=" stroke:none;fill-rule:nonzero;fill:rgb(6.666667%,50.196078%,38.823529%);fill-opacity:1;" d="M 38.726562 21.351562 C 36.792969 21.351562 35.226562 22.921875 35.226562 24.851562 C 35.226562 26.785156 36.792969 28.351562 38.726562 28.351562 C 40.660156 28.351562 42.226562 26.785156 42.226562 24.851562 C 42.226562 22.921875 40.660156 21.351562 38.726562 21.351562 Z M 38.726562 21.351562 "/>
</g>
</svg>
